<svg width="504" height="517" viewBox="0 0 504 517" fill="none" xmlns="http://www.w3.org/2000/svg">
<path d="M168.576 416.288C168.576 418.426 166.239 420.136 163.292 420.136C159.939 420.457 157.602 418.746 157.602 416.288C157.602 414.15 159.939 412.439 162.885 412.439C165.934 412.118 168.576 413.829 168.576 416.288ZM136.974 411.477C136.263 413.615 138.295 416.074 141.344 416.715C143.985 417.784 147.034 416.715 147.644 414.577C148.253 412.439 146.323 409.98 143.274 409.018C140.632 408.27 137.685 409.339 136.974 411.477ZM181.887 409.66C178.94 410.408 176.908 412.439 177.213 414.898C177.518 417.036 180.16 418.426 183.208 417.677C186.155 416.929 188.187 414.898 187.882 412.76C187.577 410.729 184.834 409.339 181.887 409.66ZM248.748 0C107.811 0 0 112.571 0 260.848C0 379.405 70.9258 480.858 172.234 516.564C185.24 519.023 189.813 510.578 189.813 503.629C189.813 497.001 189.508 460.439 189.508 437.989C189.508 437.989 118.379 454.025 103.442 406.132C103.442 406.132 91.8581 375.022 75.1935 367.004C75.1935 367.004 51.9242 350.22 76.8194 350.541C76.8194 350.541 102.121 352.679 116.042 378.123C138.295 419.388 175.587 407.521 190.118 400.466C192.455 383.361 199.06 371.494 206.376 364.439C149.574 357.811 92.2645 349.151 92.2645 246.309C92.2645 216.91 99.9871 202.157 116.245 183.342C113.603 176.393 104.966 147.743 118.887 110.753C140.124 103.805 189 139.618 189 139.618C209.323 133.631 231.169 130.531 252.813 130.531C274.456 130.531 296.303 133.631 316.626 139.618C316.626 139.618 365.502 103.698 386.739 110.753C400.66 147.849 392.023 176.393 389.381 183.342C405.639 202.264 415.597 217.017 415.597 246.309C415.597 349.472 355.747 357.704 298.945 364.439C308.294 372.884 316.219 388.92 316.219 414.043C316.219 450.07 315.915 494.649 315.915 503.415C315.915 510.364 320.589 518.809 333.494 516.351C435.106 480.858 504 379.405 504 260.848C504 112.571 389.685 0 248.748 0ZM98.7677 368.715C97.4468 369.784 97.7516 372.243 99.479 374.274C101.105 375.984 103.442 376.733 104.763 375.343C106.084 374.274 105.779 371.815 104.052 369.784C102.426 368.074 100.089 367.325 98.7677 368.715ZM87.7935 360.056C87.0823 361.445 88.0984 363.156 90.1306 364.225C91.7564 365.294 93.7887 364.973 94.5 363.477C95.2113 362.087 94.1952 360.376 92.1629 359.307C90.1306 358.666 88.5048 358.987 87.7935 360.056ZM120.716 398.114C119.09 399.504 119.7 402.711 122.037 404.742C124.374 407.201 127.321 407.521 128.642 405.811C129.963 404.421 129.353 401.214 127.321 399.183C125.085 396.724 122.037 396.403 120.716 398.114ZM109.132 382.399C107.506 383.468 107.506 386.247 109.132 388.706C110.758 391.165 113.502 392.234 114.823 391.165C116.448 389.775 116.448 386.996 114.823 384.537C113.4 382.078 110.758 381.009 109.132 382.399Z" fill="white"/>
</svg>
