<svg width="596" height="589" viewBox="0 0 596 589" fill="none" xmlns="http://www.w3.org/2000/svg">
<path d="M298.066 143.488C213.503 143.488 145.294 210.911 145.294 294.5C145.294 378.089 213.503 445.512 298.066 445.512C382.63 445.512 450.839 378.089 450.839 294.5C450.839 210.911 382.63 143.488 298.066 143.488ZM298.066 392.678C243.419 392.678 198.744 348.649 198.744 294.5C198.744 240.351 243.286 196.322 298.066 196.322C352.847 196.322 397.389 240.351 397.389 294.5C397.389 348.649 352.714 392.678 298.066 392.678ZM492.722 137.311C492.722 156.894 476.767 172.534 457.088 172.534C437.277 172.534 421.455 156.762 421.455 137.311C421.455 117.859 437.41 102.088 457.088 102.088C476.767 102.088 492.722 117.859 492.722 137.311ZM593.906 173.059C591.646 125.876 580.743 84.0818 545.774 49.6474C510.938 15.2129 468.656 4.43574 420.923 2.07001C371.727 -0.690003 224.273 -0.690003 175.077 2.07001C127.477 4.30431 85.1951 15.0815 50.2262 49.516C15.2573 83.9504 4.48745 125.745 2.09414 172.928C-0.698048 221.557 -0.698048 367.312 2.09414 415.941C4.35449 463.124 15.2573 504.918 50.2262 539.353C85.1951 573.787 127.344 584.564 175.077 586.93C224.273 589.69 371.727 589.69 420.923 586.93C468.656 584.696 510.938 573.919 545.774 539.353C580.61 504.918 591.513 463.124 593.906 415.941C596.698 367.312 596.698 221.688 593.906 173.059ZM530.35 468.118C519.979 493.878 499.902 513.724 473.709 524.107C434.485 539.484 341.412 535.935 298.066 535.935C254.721 535.935 161.515 539.353 122.424 524.107C96.3638 513.855 76.2867 494.01 65.7827 468.118C50.2262 429.346 53.8162 337.346 53.8162 294.5C53.8162 251.654 50.3592 159.522 65.7827 120.882C76.1537 95.1219 96.2309 75.2761 122.424 64.8932C161.648 49.516 254.721 53.0645 298.066 53.0645C341.412 53.0645 434.618 49.6474 473.709 64.8932C499.769 75.1446 519.846 94.9905 530.35 120.882C545.907 159.654 542.317 251.654 542.317 294.5C542.317 337.346 545.907 429.478 530.35 468.118Z" fill="white"/>
</svg>
