<svg width="582" height="582" viewBox="0 0 582 582" fill="none" xmlns="http://www.w3.org/2000/svg">
<path d="M540.429 0H41.4415C18.5772 0 0 18.8371 0 41.9612V540.039C0 563.163 18.5772 582 41.4415 582H540.429C563.293 582 582 563.163 582 540.039V41.9612C582 18.8371 563.293 0 540.429 0ZM175.899 498.857H89.6384V221.108H176.029V498.857H175.899ZM132.769 183.174C105.098 183.174 82.7531 160.7 82.7531 133.158C82.7531 105.617 105.098 83.1429 132.769 83.1429C160.31 83.1429 182.784 105.617 182.784 133.158C182.784 160.829 160.44 183.174 132.769 183.174V183.174ZM499.247 498.857H412.986V363.75C412.986 331.532 412.337 290.091 368.167 290.091C323.218 290.091 316.333 325.167 316.333 361.412V498.857H230.072V221.108H312.825V259.042H313.994C325.556 237.217 353.747 214.223 395.708 214.223C483.008 214.223 499.247 271.773 499.247 346.602V498.857V498.857Z" fill="white"/>
</svg>
